<?xml version="1.0" encoding="utf-8"?>
<!-- Generator: Adobe Illustrator 13.0.0, SVG Export Plug-In . SVG Version: 6.00 Build 14948)  -->
<!DOCTYPE svg PUBLIC "-//W3C//DTD SVG 1.1//EN" "http://www.w3.org/Graphics/SVG/1.1/DTD/svg11.dtd">
<svg version="1.1" id="Layer_1" xmlns="http://www.w3.org/2000/svg" xmlns:xlink="http://www.w3.org/1999/xlink" x="0px" y="0px"
	 width="470.667px" height="120px" viewBox="0 0 470.667 120" enable-background="new 0 0 470.667 120" xml:space="preserve">
<g>
	
		<rect x="92.704" y="24.999" fill="#F1DD9E" stroke="#F1DD9E" stroke-width="5" stroke-linejoin="round" stroke-miterlimit="3.4" width="31.75" height="44"/>
	<g>
		<title>Layer 1</title>
		<g id="layer1_1_">
			
				<path id="path33962_1_" marker-start="none" marker-mid="none" marker-end="none" fill="#F1DD9E" stroke="#F1DD9E" stroke-width="5" stroke-linejoin="round" stroke-miterlimit="3.4" d="
				M109.445,17.446c2.354,0.093,4.613,0.492,6.785,1.151c-11.7,3.602-20.246,14.952-20.246,28.323
				c0,13.373,8.546,24.723,20.246,28.327c-2.506,0.76-5.147,1.15-7.889,1.15c-15.592,0-28.246-13.205-28.246-29.477
				c0-16.27,12.654-29.475,28.246-29.475C108.707,17.446,109.083,17.432,109.445,17.446z"/>
		</g>
	</g>
	<g>
		<path fill="#F1DD9E" d="M176.116,29.273l10.393,33.076l16.359-31.204h6.453l-24.135,46.598l-10.369-33.117l-17.124,33.047
			l-15.626-46.528h6.193l10.572,31.482L176.116,29.273z"/>
		<path fill="#F1DD9E" d="M217.231,31.145h5.973l-5.691,38.672h13.184l-0.949,6.117h-19.23L217.231,31.145z"/>
		<path fill="#F1DD9E" d="M270.054,29.273l10.393,33.076l16.359-31.204h6.453l-24.135,46.598l-10.369-33.117L251.63,77.673
			l-15.625-46.528h6.192l10.573,31.482L270.054,29.273z"/>
		<path fill="#F1DD9E" d="M312.611,31.145h6.039l-6.572,44.79h-6.041L312.611,31.145z"/>
		<path fill="#F1DD9E" d="M330.47,31.145h7.629c4.781,0,8.602,1.172,11.461,3.516c2.859,2.344,4.289,5.473,4.289,9.387
			c0,3.024-1.074,5.779-3.219,8.263c-2.146,2.484-5.037,4.148-8.672,4.992l9.746,18.631h-6.508l-9.488-18.141l-3.045-0.07
			l-2.727,18.211h-6.041L330.47,31.145z M335.751,36.559l-2.219,15.75c5.063,0,8.643-0.809,10.738-2.426s3.145-3.586,3.145-5.906
			c0-1.594-0.496-3.023-1.484-4.289c-0.99-1.266-2.209-2.104-3.658-2.514C340.824,36.765,338.65,36.559,335.751,36.559z"/>
		<path fill="#F1DD9E" d="M365.099,31.145h21.094l-0.951,5.977h-14.996l-1.711,11.18h15.057l-0.881,5.977h-14.98l-2.279,15.54
			h14.906l-0.809,6.117h-21.164L365.099,31.145z"/>
	</g>
	<g>
		<title>Layer 1</title>
		<g id="layer1">
			
				<path id="path33962" marker-start="none" marker-mid="none" marker-end="none" fill="#234311" stroke="#F1DD9E" stroke-width="5" stroke-linejoin="round" stroke-miterlimit="3.4" d="
				M108.984,17.446c15.592,0,28.246,13.205,28.246,29.475c0,16.271-12.654,29.477-28.246,29.477c-2.74,0-5.382-0.391-7.889-1.15
				c11.701-3.604,20.247-14.954,20.247-28.326c0-13.371-8.546-24.722-20.247-28.324c2.173-0.66,4.433-1.058,6.785-1.151
				C108.243,17.432,108.619,17.446,108.984,17.446z"/>
		</g>
	</g>
	<g>
		<path fill="#F1DD9E" d="M19.356,87.528h1.717l2.716,9.304l5.434-9.304h1.936l-7.911,13.546L19.356,87.528z"/>
		<path fill="#F1DD9E" d="M32.204,92.379h1.74l-1.169,8.213h-1.74L32.204,92.379z M32.542,88.688c0-0.309,0.109-0.571,0.328-0.79
			s0.481-0.328,0.789-0.328s0.572,0.109,0.795,0.328c0.222,0.219,0.333,0.481,0.333,0.79c0,0.314-0.109,0.581-0.328,0.799
			c-0.219,0.22-0.485,0.328-0.8,0.328c-0.308,0-0.57-0.11-0.789-0.333C32.652,89.26,32.542,88.994,32.542,88.688z"/>
		<path fill="#F1DD9E" d="M43.514,96.921h-6.512c0.089,0.827,0.354,1.46,0.795,1.897c0.44,0.438,1.017,0.656,1.728,0.656
			c0.745,0,1.535-0.435,2.369-1.303l1.005,1.016c-0.875,1.094-2,1.641-3.374,1.641c-1.224,0-2.227-0.391-3.01-1.17
			c-0.782-0.779-1.174-1.776-1.174-2.994c0-1.243,0.431-2.303,1.292-3.178s1.907-1.313,3.138-1.313c1.046,0,1.938,0.386,2.677,1.158
			s1.107,1.709,1.107,2.81C43.555,96.415,43.542,96.675,43.514,96.921z M37.125,95.619h4.81c-0.267-1.347-1.029-2.021-2.287-2.021
			c-0.629,0-1.171,0.178-1.625,0.533C37.568,94.487,37.269,94.982,37.125,95.619z"/>
		<path fill="#F1DD9E" d="M44.877,92.379h1.401l1.485,4.982l3.015-5.291H50.8l1.517,5.291l2.883-4.982h1.624l-4.854,8.531h-0.021
			l-1.538-5.291l-3.015,5.291h-0.011L44.877,92.379z"/>
		<path fill="#F1DD9E" d="M65.54,88.707h1.741l-0.545,3.672h1.511l-0.227,1.619h-1.524l-0.978,6.594h-1.763l0.989-6.594h-1.287
			l0.238-1.619h1.293L65.54,88.707z"/>
		<path fill="#F1DD9E" d="M70.307,86.965h1.768l-0.887,6.931c0.499-0.574,0.963-1.005,1.391-1.292s0.888-0.43,1.38-0.43
			c0.705,0,1.309,0.247,1.812,0.743c0.502,0.496,0.754,1.096,0.754,1.8c0,0.123-0.007,0.239-0.021,0.349l-0.686,5.526H74.03
			l0.666-5.147v-0.246c0-0.458-0.125-0.836-0.374-1.133c-0.25-0.298-0.566-0.446-0.949-0.446c-0.568,0-1.109,0.319-1.622,0.959
			c-0.514,0.639-0.828,1.406-0.944,2.302l-0.475,3.712h-1.747L70.307,86.965z"/>
		<path fill="#F1DD9E" d="M85.832,96.921h-6.511c0.089,0.827,0.354,1.46,0.794,1.897c0.441,0.438,1.018,0.656,1.729,0.656
			c0.745,0,1.534-0.435,2.368-1.303l1.005,1.016c-0.875,1.094-1.999,1.641-3.373,1.641c-1.224,0-2.228-0.391-3.01-1.17
			c-0.783-0.779-1.174-1.776-1.174-2.994c0-1.243,0.431-2.303,1.292-3.178s1.907-1.313,3.138-1.313c1.046,0,1.938,0.386,2.676,1.158
			s1.107,1.709,1.107,2.81C85.873,96.415,85.859,96.675,85.832,96.921z M79.444,95.619h4.809c-0.267-1.347-1.028-2.021-2.286-2.021
			c-0.629,0-1.171,0.178-1.626,0.533C79.886,94.487,79.587,94.982,79.444,95.619z"/>
		<path fill="#F1DD9E" d="M93.009,100.592l1.221-8.213h1.763l-0.235,1.578c0.622-0.58,1.155-1.023,1.6-1.327
			c0.444-0.305,0.899-0.456,1.364-0.456c0.991,0,1.586,0.608,1.784,1.824c1.094-1.216,2.075-1.824,2.943-1.824
			c0.521,0,0.951,0.198,1.293,0.595s0.513,0.905,0.513,1.527c0,0.144-0.007,0.26-0.021,0.349l-0.905,5.947h-1.763l0.882-5.968
			c0.014-0.027,0.021-0.082,0.021-0.164c0-0.561-0.28-0.841-0.841-0.841c-0.514,0-1.013,0.271-1.498,0.815
			c-0.486,0.543-0.787,1.188-0.903,1.933l-0.624,4.225h-1.763l0.841-5.65c0.014-0.054,0.021-0.153,0.021-0.297
			c0-0.684-0.295-1.025-0.884-1.025c-0.534,0-1.042,0.28-1.524,0.841c-0.483,0.561-0.782,1.21-0.899,1.947l-0.621,4.185H93.009z"/>
		<path fill="#F1DD9E" d="M106.996,96.664c0-1.23,0.442-2.282,1.328-3.158c0.885-0.874,1.953-1.313,3.204-1.313
			c1.244,0,2.28,0.398,3.107,1.195c0.827,0.796,1.24,1.789,1.24,2.979c0,1.265-0.431,2.315-1.292,3.153
			c-0.861,0.837-1.941,1.256-3.24,1.256c-1.271,0-2.313-0.385-3.127-1.153C107.403,98.854,106.996,97.868,106.996,96.664z
			 M111.58,93.938c-0.8,0-1.474,0.265-2.021,0.794c-0.547,0.53-0.82,1.161-0.82,1.892c0,0.732,0.229,1.316,0.688,1.754
			s1.069,0.656,1.835,0.656c0.854,0,1.547-0.239,2.076-0.718c0.53-0.479,0.795-1.107,0.795-1.887c0-0.711-0.239-1.304-0.718-1.779
			C112.936,94.175,112.325,93.938,111.58,93.938z"/>
		<path fill="#F1DD9E" d="M116.973,99.248l0.964-1.22c0.39,0.417,0.743,0.725,1.061,0.923c0.318,0.198,0.679,0.297,1.082,0.297
			c0.328,0,0.605-0.079,0.831-0.238s0.338-0.351,0.338-0.574c-0.004-0.366-0.368-0.749-1.09-1.149
			c-0.723-0.4-1.229-0.796-1.52-1.186c-0.291-0.39-0.436-0.857-0.436-1.405c0-0.689,0.267-1.283,0.8-1.778
			c0.533-0.496,1.172-0.743,1.917-0.743c0.704,0,1.535,0.355,2.492,1.066l-0.964,1.22c-0.69-0.479-1.237-0.718-1.641-0.718
			c-0.301,0-0.551,0.091-0.749,0.271c-0.198,0.181-0.297,0.407-0.297,0.681c0,0.225,0.087,0.428,0.263,0.607
			c0.175,0.182,0.536,0.423,1.082,0.726s0.962,0.638,1.249,1.007s0.431,0.82,0.431,1.354c0,0.697-0.263,1.279-0.789,1.744
			c-0.526,0.464-1.193,0.697-2,0.697c-0.574,0-1.094-0.127-1.559-0.38S117.486,99.796,116.973,99.248z"/>
		<path fill="#F1DD9E" d="M126.858,88.707h1.741l-0.545,3.672h1.511l-0.227,1.619h-1.524l-0.978,6.594h-1.763l0.989-6.594h-1.287
			l0.238-1.619h1.293L126.858,88.707z"/>
		<path fill="#F1DD9E" d="M135.492,100.592l1.22-8.213h1.783l-0.256,1.742c0.062-0.136,0.253-0.423,0.574-0.861
			c0.321-0.437,0.627-0.728,0.918-0.871c0.29-0.144,0.661-0.215,1.112-0.215c0.355,0,0.797,0.089,1.323,0.266l-0.8,1.703
			c-0.472-0.191-0.879-0.287-1.221-0.287c-0.663,0-1.174,0.213-1.533,0.641c-0.358,0.427-0.617,1.157-0.774,2.189l-0.585,3.906
			H135.492z"/>
		<path fill="#F1DD9E" d="M150.78,96.921h-6.511c0.089,0.827,0.354,1.46,0.794,1.897c0.441,0.438,1.018,0.656,1.729,0.656
			c0.745,0,1.534-0.435,2.368-1.303l1.005,1.016c-0.875,1.094-1.999,1.641-3.373,1.641c-1.224,0-2.228-0.391-3.01-1.17
			c-0.783-0.779-1.174-1.776-1.174-2.994c0-1.243,0.431-2.303,1.292-3.178s1.907-1.313,3.138-1.313c1.046,0,1.938,0.386,2.676,1.158
			s1.107,1.709,1.107,2.81C150.821,96.415,150.807,96.675,150.78,96.921z M144.392,95.619h4.809
			c-0.267-1.347-1.028-2.021-2.286-2.021c-0.629,0-1.171,0.178-1.626,0.533C144.834,94.487,144.536,94.982,144.392,95.619z"/>
		<path fill="#F1DD9E" d="M158.563,98.305l-0.308,2.082c-0.875,0.294-1.535,0.441-1.979,0.441c-1.107,0-2.042-0.419-2.805-1.257
			c-0.762-0.837-1.143-1.867-1.143-3.091c0-1.196,0.415-2.214,1.245-3.051c0.831-0.838,1.831-1.256,3-1.256
			c0.854,0,1.729,0.249,2.625,0.748l-0.277,1.855c-0.943-0.574-1.719-0.861-2.327-0.861c-0.697,0-1.296,0.257-1.795,0.77
			s-0.748,1.132-0.748,1.855c0,0.685,0.22,1.273,0.661,1.77c0.44,0.495,0.962,0.743,1.563,0.743
			C156.843,99.054,157.606,98.805,158.563,98.305z"/>
		<path fill="#F1DD9E" d="M168.058,96.921h-6.512c0.089,0.827,0.354,1.46,0.795,1.897c0.44,0.438,1.017,0.656,1.728,0.656
			c0.745,0,1.535-0.435,2.369-1.303l1.005,1.016c-0.875,1.094-2,1.641-3.374,1.641c-1.224,0-2.227-0.391-3.01-1.17
			c-0.782-0.779-1.174-1.776-1.174-2.994c0-1.243,0.431-2.303,1.292-3.178s1.907-1.313,3.138-1.313c1.046,0,1.938,0.386,2.677,1.158
			s1.107,1.709,1.107,2.81C168.099,96.415,168.085,96.675,168.058,96.921z M161.669,95.619h4.81
			c-0.267-1.347-1.029-2.021-2.287-2.021c-0.629,0-1.171,0.178-1.625,0.533C162.112,94.487,161.813,94.982,161.669,95.619z"/>
		<path fill="#F1DD9E" d="M169.083,100.592l1.199-8.213h1.741l-0.192,1.456c0.547-0.561,1.048-0.978,1.502-1.251
			c0.455-0.273,0.955-0.41,1.502-0.41c0.595,0,1.128,0.246,1.6,0.738s0.707,1.049,0.707,1.671c0,0.15-0.007,0.271-0.021,0.358
			l-0.862,5.65h-1.721l0.779-5.229c0.014-0.068,0.021-0.181,0.021-0.339c0-0.416-0.122-0.755-0.365-1.015s-0.563-0.39-0.961-0.39
			c-0.631,0-1.196,0.328-1.696,0.984c-0.5,0.655-0.833,1.523-0.997,2.604l-0.495,3.385H169.083z"/>
		<path fill="#F1DD9E" d="M180.967,88.707h1.742l-0.545,3.672h1.51l-0.227,1.619h-1.523l-0.979,6.594h-1.763l0.99-6.594h-1.287
			l0.237-1.619h1.293L180.967,88.707z"/>
		<path fill="#F1DD9E" d="M189.601,100.592l1.221-8.213h1.783l-0.257,1.742c0.062-0.136,0.253-0.423,0.574-0.861
			c0.322-0.437,0.628-0.728,0.918-0.871c0.291-0.144,0.662-0.215,1.113-0.215c0.355,0,0.797,0.089,1.323,0.266l-0.8,1.703
			c-0.473-0.191-0.879-0.287-1.221-0.287c-0.663,0-1.175,0.213-1.533,0.641c-0.359,0.427-0.617,1.157-0.774,2.189l-0.585,3.906
			H189.601z"/>
		<path fill="#F1DD9E" d="M204.89,96.921h-6.512c0.089,0.827,0.354,1.46,0.795,1.897c0.44,0.438,1.017,0.656,1.728,0.656
			c0.745,0,1.535-0.435,2.369-1.303l1.005,1.016c-0.875,1.094-2,1.641-3.374,1.641c-1.224,0-2.227-0.391-3.01-1.17
			c-0.782-0.779-1.174-1.776-1.174-2.994c0-1.243,0.431-2.303,1.292-3.178s1.907-1.313,3.138-1.313c1.046,0,1.938,0.386,2.677,1.158
			s1.107,1.709,1.107,2.81C204.931,96.415,204.917,96.675,204.89,96.921z M198.501,95.619h4.81
			c-0.267-1.347-1.029-2.021-2.287-2.021c-0.629,0-1.171,0.178-1.625,0.533C198.944,94.487,198.645,94.982,198.501,95.619z"/>
		<path fill="#F1DD9E" d="M209.143,92.379l-0.137,0.92c0.953-0.75,1.857-1.125,2.714-1.125c1.048,0,1.97,0.41,2.765,1.23
			s1.192,1.767,1.192,2.84c0,1.251-0.422,2.328-1.264,3.23s-1.842,1.354-2.999,1.354c-1.499,0-2.574-0.672-3.225-2.015l-0.852,5.747
			h-1.741l1.784-12.182H209.143z M213.791,96.27c0-0.732-0.253-1.364-0.759-1.896c-0.506-0.53-1.114-0.796-1.825-0.796
			c-0.834,0-1.515,0.293-2.041,0.878c-0.526,0.586-0.789,1.345-0.789,2.275c0,0.699,0.27,1.315,0.81,1.85s1.166,0.801,1.877,0.801
			c0.745,0,1.386-0.305,1.922-0.914C213.522,97.858,213.791,97.126,213.791,96.27z"/>
		<path fill="#F1DD9E" d="M216.774,96.664c0-1.23,0.442-2.282,1.328-3.158c0.885-0.874,1.953-1.313,3.204-1.313
			c1.244,0,2.28,0.398,3.107,1.195c0.827,0.796,1.24,1.789,1.24,2.979c0,1.265-0.431,2.315-1.292,3.153
			c-0.861,0.837-1.941,1.256-3.24,1.256c-1.271,0-2.313-0.385-3.127-1.153C217.181,98.854,216.774,97.868,216.774,96.664z
			 M221.358,93.938c-0.8,0-1.474,0.265-2.021,0.794c-0.547,0.53-0.82,1.161-0.82,1.892c0,0.732,0.229,1.316,0.688,1.754
			s1.069,0.656,1.835,0.656c0.854,0,1.547-0.239,2.076-0.718c0.53-0.479,0.795-1.107,0.795-1.887c0-0.711-0.239-1.304-0.718-1.779
			C222.714,94.175,222.103,93.938,221.358,93.938z"/>
		<path fill="#F1DD9E" d="M226.792,100.592l1.22-8.213h1.783l-0.256,1.742c0.062-0.136,0.253-0.423,0.574-0.861
			c0.321-0.437,0.627-0.728,0.918-0.871c0.29-0.144,0.661-0.215,1.112-0.215c0.355,0,0.797,0.089,1.323,0.266l-0.8,1.703
			c-0.472-0.191-0.879-0.287-1.221-0.287c-0.663,0-1.174,0.213-1.533,0.641c-0.358,0.427-0.617,1.157-0.774,2.189l-0.585,3.906
			H226.792z"/>
		<path fill="#F1DD9E" d="M236.236,88.707h1.742l-0.545,3.672h1.51l-0.227,1.619h-1.523l-0.979,6.594h-1.763l0.989-6.594h-1.287
			l0.238-1.619h1.293L236.236,88.707z"/>
		<path fill="#F1DD9E" d="M239.035,99.248l0.965-1.22c0.389,0.417,0.743,0.725,1.061,0.923c0.318,0.198,0.679,0.297,1.082,0.297
			c0.328,0,0.605-0.079,0.83-0.238c0.227-0.159,0.339-0.351,0.339-0.574c-0.005-0.366-0.368-0.749-1.091-1.149
			c-0.722-0.4-1.229-0.796-1.519-1.186c-0.291-0.39-0.437-0.857-0.437-1.405c0-0.689,0.268-1.283,0.801-1.778
			c0.533-0.496,1.172-0.743,1.917-0.743c0.704,0,1.534,0.355,2.491,1.066l-0.963,1.22c-0.691-0.479-1.238-0.718-1.641-0.718
			c-0.301,0-0.551,0.091-0.749,0.271c-0.198,0.181-0.298,0.407-0.298,0.681c0,0.225,0.088,0.428,0.264,0.607
			c0.175,0.182,0.535,0.423,1.082,0.726c0.545,0.303,0.962,0.638,1.249,1.007s0.431,0.82,0.431,1.354
			c0,0.697-0.264,1.279-0.789,1.744c-0.527,0.464-1.193,0.697-2,0.697c-0.574,0-1.094-0.127-1.559-0.38
			S239.548,99.796,239.035,99.248z"/>
		<path fill="#F1DD9E" d="M252.345,96.664c0-1.23,0.441-2.282,1.327-3.158c0.886-0.874,1.954-1.313,3.204-1.313
			c1.244,0,2.28,0.398,3.107,1.195c0.827,0.796,1.24,1.789,1.24,2.979c0,1.265-0.43,2.315-1.291,3.153
			c-0.861,0.837-1.941,1.256-3.24,1.256c-1.271,0-2.314-0.385-3.128-1.153C252.751,98.854,252.345,97.868,252.345,96.664z
			 M256.928,93.938c-0.8,0-1.474,0.265-2.021,0.794c-0.547,0.53-0.82,1.161-0.82,1.892c0,0.732,0.229,1.316,0.688,1.754
			s1.07,0.656,1.836,0.656c0.854,0,1.546-0.239,2.076-0.718c0.529-0.479,0.795-1.107,0.795-1.887c0-0.711-0.24-1.304-0.719-1.779
			C258.285,94.175,257.673,93.938,256.928,93.938z"/>
		<path fill="#F1DD9E" d="M269.294,87.262l-0.513,1.672c-0.499-0.15-0.874-0.227-1.127-0.227c-0.444,0-0.711,0.281-0.8,0.842
			l-0.432,2.83h2.071l-0.277,1.619h-2.04l-1.006,6.594h-1.742l0.993-6.594h-1.618l0.245-1.619h1.616l0.466-3.087
			c0.103-0.718,0.386-1.285,0.851-1.702s1.043-0.625,1.733-0.625C268.187,86.965,268.713,87.063,269.294,87.262z"/>
		<path fill="#F1DD9E" d="M279.559,86.902l7.513,9.916l1.41-9.29h1.7l-1.969,13.565l-7.539-9.914l-1.374,9.412h-1.741
			L279.559,86.902z"/>
		<path fill="#F1DD9E" d="M291.32,96.664c0-1.23,0.442-2.282,1.328-3.158c0.885-0.874,1.953-1.313,3.204-1.313
			c1.244,0,2.279,0.398,3.107,1.195c0.826,0.796,1.24,1.789,1.24,2.979c0,1.265-0.431,2.315-1.292,3.153
			c-0.861,0.837-1.941,1.256-3.24,1.256c-1.271,0-2.314-0.385-3.128-1.153C291.726,98.854,291.32,97.868,291.32,96.664z
			 M295.903,93.938c-0.799,0-1.473,0.265-2.02,0.794c-0.547,0.53-0.82,1.161-0.82,1.892c0,0.732,0.229,1.316,0.688,1.754
			c0.457,0.438,1.069,0.656,1.835,0.656c0.854,0,1.547-0.239,2.076-0.718c0.53-0.479,0.795-1.107,0.795-1.887
			c0-0.711-0.239-1.304-0.718-1.779C297.26,94.175,296.648,93.938,295.903,93.938z"/>
		<path fill="#F1DD9E" d="M301.338,100.592l1.22-8.213h1.783l-0.256,1.742c0.062-0.136,0.253-0.423,0.574-0.861
			c0.321-0.437,0.627-0.728,0.918-0.871c0.29-0.144,0.661-0.215,1.112-0.215c0.355,0,0.797,0.089,1.323,0.266l-0.8,1.703
			c-0.472-0.191-0.879-0.287-1.221-0.287c-0.663,0-1.175,0.213-1.533,0.641c-0.359,0.427-0.617,1.157-0.774,2.189l-0.585,3.906
			H301.338z"/>
		<path fill="#F1DD9E" d="M310.782,88.707h1.742l-0.545,3.672h1.51l-0.226,1.619h-1.524l-0.978,6.594h-1.763l0.989-6.594h-1.287
			l0.238-1.619h1.292L310.782,88.707z"/>
		<path fill="#F1DD9E" d="M315.549,86.965h1.768l-0.887,6.931c0.5-0.574,0.963-1.005,1.391-1.292s0.888-0.43,1.38-0.43
			c0.705,0,1.309,0.247,1.812,0.743s0.754,1.096,0.754,1.8c0,0.123-0.007,0.239-0.021,0.349l-0.685,5.526h-1.789l0.666-5.147v-0.246
			c0-0.458-0.124-0.836-0.374-1.133c-0.25-0.298-0.566-0.446-0.949-0.446c-0.568,0-1.108,0.319-1.622,0.959
			c-0.513,0.639-0.828,1.406-0.944,2.302l-0.475,3.712h-1.747L315.549,86.965z"/>
		<path fill="#F1DD9E" d="M336.473,87.025l3.594,13.566h-1.739l-0.793-3.004h-5.198l-1.732,3.004h-1.99L336.473,87.025z
			 M335.904,91.403l-2.733,4.738h3.983L335.904,91.403z"/>
		<path fill="#F1DD9E" d="M341.738,100.592l1.22-8.213h1.763l-0.234,1.578c0.622-0.58,1.155-1.023,1.6-1.327
			c0.444-0.305,0.898-0.456,1.364-0.456c0.99,0,1.585,0.608,1.783,1.824c1.095-1.216,2.076-1.824,2.944-1.824
			c0.52,0,0.951,0.198,1.293,0.595s0.513,0.905,0.513,1.527c0,0.144-0.007,0.26-0.021,0.349l-0.906,5.947h-1.762l0.882-5.968
			c0.014-0.027,0.021-0.082,0.021-0.164c0-0.561-0.28-0.841-0.841-0.841c-0.514,0-1.013,0.271-1.498,0.815
			c-0.486,0.543-0.787,1.188-0.903,1.933l-0.624,4.225h-1.764l0.842-5.65c0.013-0.054,0.02-0.153,0.02-0.297
			c0-0.684-0.294-1.025-0.883-1.025c-0.534,0-1.042,0.28-1.525,0.841c-0.482,0.561-0.782,1.21-0.898,1.947l-0.621,4.185H341.738z"/>
		<path fill="#F1DD9E" d="M363.538,96.921h-6.512c0.089,0.827,0.354,1.46,0.795,1.897c0.441,0.438,1.017,0.656,1.729,0.656
			c0.744,0,1.534-0.435,2.368-1.303l1.005,1.016c-0.875,1.094-2,1.641-3.373,1.641c-1.225,0-2.228-0.391-3.01-1.17
			c-0.783-0.779-1.174-1.776-1.174-2.994c0-1.243,0.43-2.303,1.291-3.178s1.908-1.313,3.139-1.313c1.045,0,1.938,0.386,2.676,1.158
			s1.107,1.709,1.107,2.81C363.579,96.415,363.565,96.675,363.538,96.921z M357.149,95.619h4.81
			c-0.267-1.347-1.029-2.021-2.286-2.021c-0.63,0-1.171,0.178-1.626,0.533C357.592,94.487,357.293,94.982,357.149,95.619z"/>
		<path fill="#F1DD9E" d="M364.44,100.592l1.221-8.213h1.783l-0.256,1.742c0.062-0.136,0.253-0.423,0.574-0.861
			c0.321-0.437,0.627-0.728,0.918-0.871c0.29-0.144,0.661-0.215,1.112-0.215c0.355,0,0.797,0.089,1.323,0.266l-0.8,1.703
			c-0.472-0.191-0.879-0.287-1.221-0.287c-0.663,0-1.175,0.213-1.533,0.641c-0.359,0.427-0.617,1.157-0.774,2.189l-0.585,3.906
			H364.44z"/>
		<path fill="#F1DD9E" d="M373.023,92.379h1.74l-1.169,8.213h-1.74L373.023,92.379z M373.362,88.688c0-0.309,0.108-0.571,0.328-0.79
			c0.218-0.219,0.481-0.328,0.789-0.328s0.572,0.109,0.795,0.328c0.222,0.219,0.333,0.481,0.333,0.79
			c0,0.314-0.109,0.581-0.328,0.799c-0.219,0.22-0.485,0.328-0.8,0.328c-0.308,0-0.571-0.11-0.789-0.333
			C373.47,89.26,373.362,88.994,373.362,88.688z"/>
		<path fill="#F1DD9E" d="M382.917,98.305l-0.308,2.082c-0.875,0.294-1.535,0.441-1.979,0.441c-1.107,0-2.043-0.419-2.805-1.257
			c-0.763-0.837-1.144-1.867-1.144-3.091c0-1.196,0.415-2.214,1.246-3.051c0.83-0.838,1.83-1.256,2.999-1.256
			c0.854,0,1.729,0.249,2.625,0.748l-0.277,1.855c-0.943-0.574-1.719-0.861-2.327-0.861c-0.697,0-1.296,0.257-1.794,0.77
			c-0.5,0.513-0.749,1.132-0.749,1.855c0,0.685,0.221,1.273,0.661,1.77c0.441,0.495,0.962,0.743,1.564,0.743
			C381.198,99.054,381.96,98.805,382.917,98.305z"/>
		<path fill="#F1DD9E" d="M392.034,92.379h1.741l-1.199,8.213h-1.763l0.131-0.881c-0.801,0.744-1.663,1.117-2.587,1.117
			c-1.096,0-2.045-0.423-2.849-1.267c-0.805-0.845-1.207-1.844-1.207-2.999c0-1.203,0.422-2.236,1.266-3.098
			c0.843-0.861,1.849-1.291,3.016-1.291c1.379,0,2.441,0.664,3.186,1.993L392.034,92.379z M391.592,96.311
			c0-0.732-0.265-1.364-0.795-1.896c-0.529-0.53-1.153-0.796-1.871-0.796c-0.752,0-1.396,0.289-1.933,0.868
			c-0.537,0.578-0.806,1.278-0.806,2.101c0,0.808,0.253,1.476,0.76,2.003c0.505,0.527,1.145,0.791,1.917,0.791
			c0.786,0,1.438-0.287,1.953-0.862C391.334,97.944,391.592,97.208,391.592,96.311z"/>
		<path fill="#F1DD9E" d="M394.741,100.592l1.199-8.213h1.741l-0.192,1.456c0.547-0.561,1.048-0.978,1.502-1.251
			c0.455-0.273,0.955-0.41,1.502-0.41c0.595,0,1.128,0.246,1.6,0.738s0.707,1.049,0.707,1.671c0,0.15-0.007,0.271-0.021,0.358
			l-0.862,5.65h-1.721l0.779-5.229c0.013-0.068,0.02-0.181,0.02-0.339c0-0.416-0.121-0.755-0.364-1.015s-0.563-0.39-0.961-0.39
			c-0.631,0-1.196,0.328-1.696,0.984c-0.501,0.655-0.833,1.523-0.998,2.604l-0.494,3.385H394.741z"/>
		<path fill="#F1DD9E" d="M410.05,96.664c0-1.23,0.442-2.282,1.328-3.158c0.885-0.874,1.953-1.313,3.204-1.313
			c1.244,0,2.279,0.398,3.107,1.195c0.826,0.796,1.24,1.789,1.24,2.979c0,1.265-0.431,2.315-1.292,3.153
			c-0.861,0.837-1.941,1.256-3.24,1.256c-1.271,0-2.314-0.385-3.128-1.153C410.457,98.854,410.05,97.868,410.05,96.664z
			 M414.633,93.938c-0.799,0-1.473,0.265-2.02,0.794c-0.547,0.53-0.82,1.161-0.82,1.892c0,0.732,0.229,1.316,0.688,1.754
			c0.457,0.438,1.069,0.656,1.835,0.656c0.854,0,1.547-0.239,2.076-0.718c0.53-0.479,0.795-1.107,0.795-1.887
			c0-0.711-0.239-1.304-0.718-1.779C415.991,94.175,415.378,93.938,414.633,93.938z"/>
		<path fill="#F1DD9E" d="M419.688,92.379h1.401l1.485,4.982l3.015-5.291h0.021l1.517,5.291l2.883-4.982h1.623l-4.854,8.531h-0.021
			l-1.538-5.291l-3.016,5.291h-0.011L419.688,92.379z"/>
		<path fill="#F1DD9E" d="M434.075,86.965h1.762l-2.01,13.627h-1.762L434.075,86.965z"/>
		<path fill="#F1DD9E" d="M436.27,99.248l0.963-1.22c0.391,0.417,0.744,0.725,1.062,0.923c0.318,0.198,0.679,0.297,1.082,0.297
			c0.328,0,0.604-0.079,0.831-0.238c0.225-0.159,0.338-0.351,0.338-0.574c-0.005-0.366-0.368-0.749-1.09-1.149
			c-0.723-0.4-1.229-0.796-1.52-1.186c-0.291-0.39-0.436-0.857-0.436-1.405c0-0.689,0.266-1.283,0.799-1.778
			c0.533-0.496,1.173-0.743,1.918-0.743c0.704,0,1.534,0.355,2.492,1.066l-0.965,1.22c-0.69-0.479-1.237-0.718-1.641-0.718
			c-0.301,0-0.55,0.091-0.748,0.271c-0.198,0.181-0.297,0.407-0.297,0.681c0,0.225,0.087,0.428,0.263,0.607
			c0.175,0.182,0.536,0.423,1.081,0.726c0.546,0.303,0.963,0.638,1.25,1.007s0.431,0.82,0.431,1.354c0,0.697-0.264,1.279-0.79,1.744
			c-0.526,0.464-1.192,0.697-1.999,0.697c-0.574,0-1.094-0.127-1.559-0.38S436.782,99.796,436.27,99.248z"/>
		<path fill="#F1DD9E" d="M444.184,99.648c0-0.308,0.111-0.57,0.334-0.789c0.222-0.219,0.486-0.328,0.795-0.328
			c0.307,0,0.57,0.11,0.789,0.333c0.219,0.222,0.328,0.483,0.328,0.784c0,0.308-0.109,0.572-0.328,0.795
			c-0.219,0.222-0.482,0.333-0.789,0.333c-0.315,0-0.582-0.109-0.801-0.328S444.184,99.963,444.184,99.648z M446.235,87.508h1.742
			l-1.445,9.834h-1.763L446.235,87.508z"/>
	</g>
</g>
</svg>
